<?xml version="1.0" encoding="UTF-8"?>
<svg id="Layer_1" data-name="Layer 1" xmlns="http://www.w3.org/2000/svg" viewBox="0 0 524.39 799.91">
  <defs>
    <style>
      .cls-1 {
        fill: #0e6ccc;
      }
    </style>
  </defs>
  <path class="cls-1" d="M468.63,633.51c-13.47,0-26.95-.33-40.41,.07-18.73,.56-34.99-6.68-50.74-15.43-26.44-14.69-46.12-35.95-57.89-63.78-5.2-12.29-8.19-25.54-11.91-38.43-2.67-9.24-4.84-18.62-7.33-27.91-3.31-12.33-6.75-24.64-10.09-36.96-5.07-18.69-10.2-37.36-15.12-56.09-6.69-25.48-13.21-51-19.81-76.51-4.35-16.81-8.62-33.64-13.08-50.41-5.82-21.91-11.74-43.8-17.71-65.67-6.33-23.16-12.84-46.28-19.13-69.45-4.42-16.29-8.75-32.61-12.82-49-5.1-20.48,.34-38.95,11.23-56.35,2.07-3.31,3.19-7.2,5.04-10.66,.78-1.47,2.08-3.15,3.54-3.69,10.34-3.88,20.62-8.11,31.26-10.96,6.91-1.85,14.39-2.08,21.63-2.15,26.61-.22,53.22-.08,79.83-.06,8.97,0,10.67,1.43,13.01,10.16,3.55,13.28,7.28,26.5,10.82,39.78,3.15,11.84,6.09,23.74,9.23,35.59,4.84,18.25,9.79,36.47,14.64,54.72,4.64,17.45,9.12,34.95,13.85,52.38,3.72,13.75,7.79,27.41,11.55,41.14,5.6,20.48,11.05,41,16.59,61.49,4.94,18.25,10.01,36.46,14.86,54.73,4.75,17.93,9.17,35.96,13.97,53.88,3.9,14.57,8.25,29.03,12.2,43.59,3.34,12.31,6.37,24.71,9.61,37.05,3.75,14.26,7.57,28.5,11.4,42.74,4.05,15.06,8.12,30.1,12.21,45.15,4.83,17.75,9.62,35.52,14.58,53.24,1.75,6.25,.82,7.81-5.59,7.82-16.47,.02-32.93,0-49.4,0Z"/>
  <path class="cls-1" d="M193.43,24.91c-3.59,9.13-7.16,17.99-10.52,26.94-.8,2.13-1.19,4.54-1.18,6.82,.03,14.93-1.36,29.91,1.99,44.72,2.85,12.61,5.48,25.27,8.08,37.93,2.36,11.52,4.5,23.09,6.84,34.62,2.17,10.71,4.59,21.37,6.69,32.1,2.32,11.87,4.33,23.8,6.61,35.68,4.6,23.94,9.22,47.87,13.96,71.78,3.5,17.66,7.21,35.28,10.83,52.92,2.22,10.84,4.14,21.76,6.77,32.51,1.48,6.05-.03,11.51-1.5,17.09-4.68,17.8-9.43,35.58-14.21,53.34-6.16,22.87-11.78,45.92-18.72,68.55-12.89,42-41.11,70.06-81.35,86.56-11.15,4.57-22.61,7.27-34.8,7.09-19.12-.28-38.25-.07-57.38-.06-1.95,0-3.91,0-6.58,0,2.44-9.52,4.7-18.29,6.93-27.07,4.13-16.21,8.2-32.43,12.41-48.62,3.29-12.66,6.8-25.27,10.12-37.92,3.16-12,6.19-24.04,9.3-36.05,3.99-15.39,8-30.79,12.04-46.17,4.08-15.56,8.2-31.1,12.31-46.65,3.42-12.96,6.91-25.9,10.25-38.88,4-15.55,7.85-31.15,11.82-46.7,3.03-11.85,6.21-23.66,9.23-35.51,3.35-13.15,6.56-26.34,9.9-39.49,2.4-9.47,4.91-18.92,7.37-28.38,4.17-16.04,7.68-32.28,12.65-48.06,7.26-23.02,3.61-46.52,4.43-69.81,.08-2.35-.88-4.73-1.36-7.1-.6-.1-1.2-.2-1.8-.3-1.84,5.77-3.88,11.48-5.49,17.31-3.57,12.92-6.99,25.89-10.36,38.87-3.07,11.84-5.95,23.72-9,35.56-2.52,9.78-5.17,19.53-7.76,29.3-3.34,12.63-6.66,25.27-9.99,37.9-4.06,15.37-8.16,30.72-12.17,46.1-4.05,15.51-7.97,31.05-12.01,46.56-2.38,9.13-4.97,18.2-7.33,27.34-2.65,10.25-5.05,20.56-7.73,30.8-2.59,9.92-5.47,19.77-8.08,29.68-2.53,9.57-4.87,19.18-7.32,28.76-4.68,18.27-9.4,36.52-14.07,54.8-4.68,18.3-9.26,36.62-13.98,54.91-3.11,12.02-6.45,23.99-9.59,36-3.35,12.79-6.75,25.58-9.77,38.45-1.02,4.35-3.69,4.71-7.02,4.24-3.97-.55-2.8-3.74-2.25-5.87,4.57-17.65,9.35-35.25,14.01-52.88,4.66-17.62,9.12-35.3,13.91-52.89,6.19-22.72,12.72-45.34,18.89-68.06,4.83-17.76,9.3-35.61,14.02-53.4,3.15-11.86,6.5-23.66,9.68-35.51,4.12-15.36,8.08-30.76,12.24-46.11,3.34-12.31,6.99-24.54,10.28-36.87,3.94-14.73,7.55-29.55,11.46-44.29,6.16-23.23,12.48-46.41,18.68-69.63,6.84-25.63,13.28-51.38,20.56-76.88,4.14-14.48,11.27-27.84,21.14-39.24,7.79-9,16.77-16.97,25.27-25.35,.75-.74,1.92-1.06,2.67-1.45Z"/>
  <path class="cls-1" d="M261.55,756.02c0,12.65-.1,25.3,.06,37.94,.04,3.6-.99,4.95-4.8,4.98-12.78,.09-12.78,.23-12.77-12.36,0-7.65-.14-15.31,.05-22.96,.11-4.13-2.23-4.54-5.4-4.54-3.17,0-5.44,.39-5.36,4.55,.2,10.15-.07,20.3,.14,30.45,.08,3.72-1.15,4.85-4.85,4.86-12.95,.06-12.92,.19-12.91-12.87,.02-22.3,.12-44.6-.09-66.9-.05-4.82,1.02-6.78,6.32-6.61,11.44,.38,11.45,.1,11.45,11.69,0,4.99,.21,10-.06,14.97-.22,4.05,1.51,5.22,5.27,5.18,3.54-.04,5.64-.76,5.51-4.99-.24-7.48,.05-14.98-.11-22.46-.07-3.25,1.09-4.27,4.34-4.34,13.21-.26,13.21-.36,13.2,12.95,0,10.15,0,20.3,0,30.45Z"/>
  <path class="cls-1" d="M130.21,712.69c2.99,0,6.03,.34,8.97-.08,4.54-.65,5.82,1.73,6.22,5.54,2.04,19.46,4.11,38.92,6.18,58.38,.65,6.1,1.29,12.2,2.01,18.29,.37,3.09-.93,4.33-3.95,4.04-.82-.08-1.66,.02-2.49-.01-3.14-.13-6.98,.76-9.19-.74-1.71-1.16-1.6-5.3-1.9-8.16-.4-3.81-2.64-4.27-5.86-4.23-3.24,.04-5.92,.04-6.16,4.33-.16,2.75,.04,6.86-1.53,7.88-2.28,1.48-6.02,.87-9.13,.9-7.6,.08-7.66-.37-6.71-7.88,2.07-16.28,3.8-32.61,5.67-48.92,1-8.73,1.88-17.48,3.13-26.17,.17-1.19,2.05-2.89,3.28-3.02,3.78-.4,7.63-.14,11.46-.15Zm.73,15.49l-1.49,.03c-.28,.54-.77,1.06-.81,1.62-.97,12.71-1.91,25.43-2.79,38.14-.22,3.18,2.1,3.27,4.36,3.29,2.59,.03,4-.89,3.81-3.84-.71-10.57-1.24-21.16-1.94-31.74-.17-2.52-.74-5.01-1.13-7.51Z"/>
  <path class="cls-1" d="M160.86,756.99c.44-9.28,.38-18.62,1.45-27.83,1.23-10.56,7.93-16.33,18.49-16.44,5.05-.05,10.27,.53,15.13,1.84,7.02,1.9,10.4,7.59,11.3,14.43,.6,4.58,.33,9.31,.03,13.95-.07,1.1-1.81,2.11-2.85,3.1-.18,.17-.64,.04-.98,.06-12.65,.82-12.69,.82-14.17-11.57-.4-3.35-1.45-5.94-5.35-5.75-3.72,.18-4.48,2.85-4.48,5.96,0,14.14-.03,28.29,.03,42.43,.02,3.39,1.06,6.78,4.95,6.86,3.58,.08,4.86-2.89,4.94-6.27,.09-3.65,.38-7.3,.39-10.96,0-2.82,.87-4.32,4.03-4.23,16.94,.46,13.46-2.79,13.81,13.26,.07,3.14,.08,6.38-.59,9.42-1.87,8.49-8.9,13.63-19.22,14.5-17,1.43-26.49-7.25-26.5-24.28,0-6.16,0-12.31,0-18.47-.14,0-.28-.01-.43-.02Z"/>
  <path class="cls-1" d="M391,712.69c-1.84,13.81-3.55,26.74-5.3,39.67-1.84,13.63-3.86,27.23-5.51,40.88-.48,4.01-1.65,5.98-6.07,5.7-5.3-.34-10.63-.18-15.94-.04-2.78,.07-4.13-.65-4.53-3.74-1.76-13.8-3.8-27.57-5.71-41.35-1.6-11.48-3.09-22.98-4.77-34.46-.88-6.04-.51-6.64,5.5-6.65,11.23-.03,11.43-.05,12.66,11.02,1.47,13.18,2.56,26.4,3.84,39.59,.15,1.55,.44,3.1,.66,4.64,.49,.01,.98,.03,1.47,.04,.52-4.74,1.07-9.48,1.57-14.22,1.29-12.36,2.68-24.72,3.76-37.1,.29-3.34,1.69-4.17,4.73-4.04,4.4,.19,8.81,.05,13.64,.05Z"/>
  <path class="cls-1" d="M318.2,746.65c5.23,0,9.69,.1,14.14-.04,2.72-.08,3.78,.87,3.94,3.71,.65,11.5,.73,11.49-10.59,11.5q-7.48,0-7.48,7.57c0,13.83,0,14.07,13.83,13.78,5.22-.11,6.52,1.64,6.3,6.57-.46,10.37,1.18,9.01-9.04,9.09-8.15,.06-16.3-.13-24.45,.08-3.59,.09-4.98-.92-4.96-4.75,.14-25.63,.12-51.27,.02-76.9-.01-3.4,.96-4.72,4.54-4.65,9.48,.2,18.96,.17,28.44,.01,3.25-.05,4.41,1.04,4.33,4.32-.33,13.22,1.79,10.97-10.98,11.16-8.03,.12-8.03,.03-8.04,8.24,0,3.14,0,6.28,0,10.3Z"/>
  <path class="cls-1" d="M415.03,746.65c5.39,0,9.89-.25,14.33,.16,1.3,.12,3.35,2.01,3.49,3.27,1.27,11.74,1.17,11.75-10.58,11.76q-7.27,0-7.27,7.22c-.01,14.17,0,14.35,13.91,14.15,4.74-.07,6.41,1.22,6.2,6.13-.49,10.98,1.4,9.41-9.59,9.52-8.14,.08-16.29-.09-24.43,.06-3.16,.06-4.44-.93-4.43-4.25,.09-25.95,.1-51.89,0-77.84-.01-3.4,1.4-4.22,4.5-4.17,9.47,.14,18.95,.14,28.42,0,3.13-.05,4.52,.82,4.43,4.21-.34,13.36,1.79,11.02-10.85,11.28-1.83,.04-3.75-.24-5.44,.26-1.08,.32-2.52,1.77-2.57,2.78-.27,4.93-.12,9.88-.12,15.47Z"/>
  <path class="cls-1" d="M271.94,755.86c0-12.81,.11-25.62-.07-38.43-.05-3.74,1.22-4.82,4.9-4.82,12.47,0,12.47-.13,12.47,12.12,0,22.96-.1,45.92,.09,68.87,.03,4.21-1.31,5.38-5.39,5.34-12.02-.12-12.01,.04-12-12.14,0-10.31,0-20.63,0-30.94Z"/>
</svg>