<svg version="1.2" xmlns="http://www.w3.org/2000/svg" viewBox="0 0 1000 1000" width="100" height="100">
	<title>user-profile-svg</title>
	<defs>
		<clipPath clipPathUnits="userSpaceOnUse" id="cp1">
			<path d="m500 1000c-273.9 0-495.3-223.5-495.3-500 0-276.5 221.4-500 495.3-500 273.9 0 495.3 223.5 495.3 500 0 276.5-221.4 500-495.3 500z"/>
		</clipPath>
	</defs>
	<style>
		.s0 { fill: #222b44 } 
		.s1 { fill: #ffffff } 
	</style>
	<g id="Clip-Path: Clip-Path" clip-path="url(#cp1)">
		<g id="Clip-Path">
			<g id="Layer">
				<path id="Shape 1" class="s0" d="m500 1000c-273.9 0-495.3-223.5-495.3-500 0-276.5 221.4-500 495.3-500 273.9 0 495.3 223.5 495.3 500 0 276.5-221.4 500-495.3 500z"/>
				<path id="Shape 1 copy 2" class="s1" d="m500 1405c-198.9 0-359.6-162.3-359.6-363 0-200.7 160.7-363 359.6-363 198.9 0 359.6 162.3 359.6 363 0 200.7-160.7 363-359.6 363z"/>
			</g>
		</g>
	</g>
	<path id="Shape 1 copy" class="s1" d="m500 651.7c-116.8 0-211.2-95.3-211.2-213.2 0-117.9 94.4-213.2 211.2-213.2 116.8 0 211.2 95.3 211.2 213.2 0 117.9-94.4 213.2-211.2 213.2z"/>
</svg>